<?xml version="1.0" encoding="UTF-8"?><svg xmlns="http://www.w3.org/2000/svg" xmlns:xlink="http://www.w3.org/1999/xlink" width="375pt" zoomAndPan="magnify" viewBox="0 0 375 374.999991" height="374.999991pt" preserveAspectRatio="xMidYMid meet" version="1.2"><defs><g/><clipPath xml:id="clip1" id="clip1"><path d="M 37.5 117.234375 L 136 117.234375 L 136 164 L 37.5 164 Z M 37.5 117.234375 "/></clipPath><clipPath xml:id="clip2" id="clip2"><path d="M 244 185 L 275 185 L 275 192.984375 L 244 192.984375 Z M 244 185 "/></clipPath></defs><g xml:id="surface1" id="surface1"><g clip-rule="nonzero" clip-path="url(#clip1)"><path style=" stroke:none;fill-rule:nonzero;fill:rgb(100%,8.628845%,8.628845%);fill-opacity:1;" d="M 130.070312 117.898438 C 131.894531 117.601562 133.730469 117.261719 135.585938 117.234375 C 130.234375 118.0625 124.941406 119.371094 119.886719 121.324219 C 115.226562 123.128906 110.824219 125.589844 106.84375 128.621094 C 103.144531 131.390625 99.828125 134.625 96.3125 137.617188 C 92.355469 140.90625 88.027344 143.726562 83.554688 146.261719 C 73.964844 151.652344 63.710938 155.769531 53.277344 159.203125 C 48.777344 160.660156 44.242188 162.011719 39.65625 163.175781 C 38.976562 163.328125 38.3125 163.5625 37.617188 163.605469 C 40.234375 162.96875 42.804688 162.148438 45.382812 161.382812 C 56.316406 158.019531 67.078125 153.960938 77.234375 148.667969 C 84.402344 144.917969 91.277344 140.511719 97.304688 135.085938 C 98.742188 133.84375 100.035156 132.445312 101.488281 131.21875 C 109.542969 124.238281 119.625 119.792969 130.070312 117.898438 Z M 130.070312 117.898438 "/></g><path style=" stroke:none;fill-rule:nonzero;fill:rgb(100%,8.628845%,8.628845%);fill-opacity:1;" d="M 155.433594 118.753906 C 167.027344 117.992188 178.667969 118.890625 190.15625 120.515625 C 193.160156 120.746094 195.964844 121.902344 198.792969 122.839844 C 207.652344 125.882812 216.417969 129.226562 224.914062 133.175781 C 217.660156 132.527344 210.367188 132.3125 203.082031 132.292969 C 194.375 132.253906 185.667969 132.507812 176.976562 132.9375 C 174.90625 133.054688 172.8125 133.121094 170.765625 132.738281 C 169.136719 132.4375 167.535156 131.820312 166.261719 130.738281 C 162.800781 127.636719 159.515625 124.316406 155.777344 121.539062 C 155.132812 121.03125 154.328125 120.679688 153.863281 119.972656 C 153.683594 119.738281 153.652344 119.351562 153.925781 119.171875 C 154.359375 118.855469 154.917969 118.8125 155.433594 118.753906 Z M 155.433594 118.753906 "/><path style=" stroke:none;fill-rule:nonzero;fill:rgb(100%,8.628845%,8.628845%);fill-opacity:1;" d="M 136.867188 120.863281 C 139.828125 120.558594 142.859375 120.699219 145.726562 121.550781 C 149.535156 122.636719 152.976562 124.835938 155.773438 127.621094 C 158.125 129.941406 160.035156 132.675781 161.632812 135.558594 C 150.171875 136.023438 138.714844 136.449219 127.253906 136.921875 C 125.679688 133.492188 123.644531 130.226562 120.964844 127.554688 C 120.523438 127.089844 119.914062 126.71875 119.714844 126.074219 C 119.679688 125.566406 120.242188 125.347656 120.617188 125.160156 C 122.554688 124.347656 124.546875 123.671875 126.550781 123.050781 C 129.917969 122.027344 133.359375 121.207031 136.867188 120.863281 Z M 136.867188 120.863281 "/><path style=" stroke:none;fill-rule:nonzero;fill:rgb(100%,8.628845%,8.628845%);fill-opacity:1;" d="M 114.441406 128.023438 C 115.195312 127.652344 115.933594 127.128906 116.800781 127.09375 C 117.46875 127.164062 117.980469 127.65625 118.484375 128.058594 C 119.953125 129.382812 121.097656 131.023438 122.183594 132.667969 C 122.789062 133.605469 123.363281 134.5625 123.894531 135.542969 C 124.078125 135.902344 124.28125 136.335938 124.101562 136.734375 C 123.835938 137.144531 123.289062 137.09375 122.863281 137.109375 C 119.722656 137.066406 116.582031 137.121094 113.441406 137.214844 C 110.433594 137.347656 107.421875 137.511719 104.449219 137.992188 C 103.367188 138.183594 102.269531 138.386719 101.261719 138.84375 C 103.554688 134.929688 107.128906 131.921875 111.058594 129.742188 C 112.15625 129.113281 113.304688 128.585938 114.441406 128.023438 Z M 114.441406 128.023438 "/><path style=" stroke:none;fill-rule:nonzero;fill:rgb(100%,8.628845%,8.628845%);fill-opacity:1;" d="M 187.332031 134.886719 C 194.195312 134.71875 201.0625 134.539062 207.921875 134.222656 C 215.324219 133.972656 222.746094 134.074219 230.125 134.761719 C 236.507812 135.320312 242.878906 136 249.230469 136.839844 C 252.582031 137.289062 255.925781 137.773438 259.242188 138.4375 C 264.152344 139.394531 269.117188 140.367188 273.722656 142.386719 C 275.109375 143.003906 276.464844 143.699219 277.746094 144.507812 C 275.132812 143.496094 272.453125 142.636719 269.695312 142.109375 C 268.527344 141.871094 267.335938 141.753906 266.164062 141.519531 C 264.835938 141.410156 263.5 141.53125 262.167969 141.515625 C 258.027344 141.546875 253.878906 141.675781 249.769531 142.242188 C 249.234375 142.324219 248.613281 142.421875 248.28125 142.898438 C 247.984375 143.371094 248.207031 143.945312 248.421875 144.402344 C 249.84375 146.910156 251.121094 149.503906 252.441406 152.070312 C 253.347656 153.878906 254.289062 155.667969 255.164062 157.492188 C 251.570312 151.757812 246.613281 146.898438 240.867188 143.335938 C 239.882812 142.730469 238.878906 142.160156 237.835938 141.664062 C 236.417969 141.011719 234.882812 140.65625 233.347656 140.410156 C 230.390625 140.027344 227.472656 139.398438 224.535156 138.910156 C 210.515625 136.480469 196.304688 135.054688 182.070312 135.035156 C 183.824219 134.910156 185.578125 134.9375 187.332031 134.886719 Z M 187.332031 134.886719 "/><path style=" stroke:none;fill-rule:nonzero;fill:rgb(100%,8.628845%,8.628845%);fill-opacity:1;" d="M 222.324219 142.667969 C 224.546875 143.136719 226.785156 143.941406 228.488281 145.492188 C 229.476562 146.371094 230.207031 147.542969 230.519531 148.832031 C 230.730469 149.679688 230.621094 150.628906 230.097656 151.339844 C 229.464844 152.214844 228.453125 152.722656 227.453125 153.046875 C 228.371094 152.347656 229.316406 151.554688 229.703125 150.425781 C 230.074219 149.367188 229.726562 148.203125 229.078125 147.332031 C 228.070312 145.953125 226.636719 144.960938 225.1875 144.097656 C 224.265625 143.558594 223.308594 143.082031 222.324219 142.667969 Z M 222.324219 142.667969 "/><path style=" stroke:none;fill-rule:nonzero;fill:rgb(100%,8.628845%,8.628845%);fill-opacity:1;" d="M 265.015625 142.660156 C 265.632812 142.585938 266.257812 142.554688 266.878906 142.621094 C 269.808594 143.210938 272.773438 143.722656 275.621094 144.660156 C 276.453125 144.933594 277.285156 145.269531 277.964844 145.835938 C 278.871094 146.550781 279.453125 147.59375 279.828125 148.671875 C 280.484375 150.605469 281.171875 152.53125 281.648438 154.519531 C 281.839844 155.367188 282.058594 156.316406 281.617188 157.125 C 281.363281 157.648438 280.761719 157.90625 280.203125 157.867188 C 274.605469 157.441406 268.992188 157.222656 263.382812 157.132812 C 261.945312 157.074219 260.457031 157.269531 259.074219 156.792969 C 257.515625 156.253906 256.382812 154.96875 255.46875 153.65625 C 253.964844 151.472656 252.628906 149.179688 251.382812 146.84375 C 250.996094 146.054688 250.632812 145.148438 250.859375 144.261719 C 251.035156 143.613281 251.730469 143.324219 252.347656 143.28125 C 256.558594 142.867188 260.796875 142.871094 265.015625 142.660156 Z M 265.015625 142.660156 "/><path style=" stroke:none;fill-rule:nonzero;fill:rgb(100%,8.628845%,8.628845%);fill-opacity:1;" d="M 218.851562 142.804688 C 221.042969 142.632812 223.117188 143.625 224.953125 144.71875 C 226.121094 145.429688 227.257812 146.273438 228.050781 147.410156 C 228.695312 148.335938 229.027344 149.507812 228.820312 150.628906 C 228.515625 151.636719 227.59375 152.335938 226.617188 152.628906 C 225.367188 152.996094 224.027344 152.945312 222.761719 152.703125 C 219.761719 152.121094 217.167969 149.941406 215.953125 147.15625 C 215.574219 146.320312 215.519531 145.269531 216.121094 144.523438 C 216.808594 143.6875 217.730469 142.90625 218.851562 142.804688 Z M 218.851562 142.804688 "/><path style=" stroke:none;fill-rule:nonzero;fill:rgb(100%,8.628845%,8.628845%);fill-opacity:1;" d="M 233.160156 142.863281 C 235.328125 142.496094 237.5 143.347656 239.261719 144.566406 C 240.390625 145.335938 241.390625 146.28125 242.3125 147.28125 C 243.15625 148.152344 243.699219 149.285156 243.996094 150.453125 C 244.203125 151.394531 244.214844 152.484375 243.597656 153.277344 C 242.871094 154.195312 241.617188 154.492188 240.5 154.46875 C 237.496094 154.183594 234.648438 152.558594 232.875 150.113281 C 232.230469 149.238281 231.710938 148.269531 231.320312 147.253906 C 231.003906 146.324219 230.917969 145.265625 231.3125 144.34375 C 231.632812 143.582031 232.347656 143.011719 233.160156 142.863281 Z M 233.160156 142.863281 "/><path style=" stroke:none;fill-rule:nonzero;fill:rgb(100%,8.628845%,8.628845%);fill-opacity:1;" d="M 238.191406 143.191406 C 240.105469 144.230469 242.015625 145.320312 243.65625 146.761719 C 244.480469 147.515625 245.277344 148.355469 245.714844 149.402344 C 246.050781 150.183594 246.089844 151.121094 245.699219 151.886719 C 245.402344 152.519531 244.878906 153 244.339844 153.421875 C 244.902344 152.398438 245.039062 151.15625 244.664062 150.042969 C 244.09375 148.265625 242.785156 146.851562 241.429688 145.621094 C 240.429688 144.707031 239.300781 143.960938 238.191406 143.191406 Z M 238.191406 143.191406 "/><path style=" stroke:none;fill-rule:nonzero;fill:rgb(100%,8.628845%,8.628845%);fill-opacity:1;" d="M 280.386719 147.257812 C 280.441406 147.226562 280.550781 147.171875 280.605469 147.140625 C 281.132812 147.253906 281.546875 147.65625 281.925781 148.019531 C 283.039062 149.199219 283.808594 150.648438 284.460938 152.117188 C 284.894531 153.140625 285.371094 154.167969 285.527344 155.28125 C 285.574219 155.757812 285.617188 156.324219 285.265625 156.703125 C 285.042969 156.847656 284.800781 156.667969 284.636719 156.523438 C 283.195312 155.105469 282.476562 153.152344 281.566406 151.382812 C 281.085938 150.355469 280.566406 149.332031 280.300781 148.222656 C 280.25 147.910156 280.15625 147.523438 280.386719 147.257812 Z M 280.386719 147.257812 "/><path style=" stroke:none;fill-rule:nonzero;fill:rgb(100%,8.628845%,8.628845%);fill-opacity:1;" d="M 183.644531 150.765625 C 186.070312 150.332031 188.636719 150.347656 190.960938 151.253906 C 193 152.023438 194.761719 153.417969 196.117188 155.109375 C 197.8125 157.214844 198.941406 159.726562 199.691406 162.308594 C 200.5 165.144531 200.886719 168.101562 200.847656 171.050781 C 200.695312 173.675781 200.347656 176.300781 199.652344 178.84375 C 198.996094 181.226562 198.015625 183.554688 196.515625 185.535156 C 195.199219 187.285156 193.445312 188.726562 191.414062 189.570312 C 189.117188 190.542969 186.546875 190.777344 184.085938 190.453125 C 186.226562 190.246094 188.351562 189.554688 190.085938 188.25 C 192.054688 186.796875 193.46875 184.710938 194.4375 182.488281 C 195.695312 179.597656 196.324219 176.476562 196.6875 173.359375 C 197.082031 170.324219 197.023438 167.242188 196.644531 164.207031 C 196.3125 161.707031 195.703125 159.210938 194.542969 156.957031 C 193.542969 155.019531 192.074219 153.289062 190.179688 152.1875 C 188.226562 151.011719 185.898438 150.621094 183.644531 150.765625 Z M 183.644531 150.765625 "/><path style=" stroke:none;fill-rule:nonzero;fill:rgb(100%,8.628845%,8.628845%);fill-opacity:1;" d="M 102.542969 157.515625 C 103.667969 159.449219 104.875 161.363281 106.460938 162.960938 C 107.382812 163.875 108.453125 164.660156 109.675781 165.125 C 110.957031 165.632812 112.34375 165.761719 113.703125 165.859375 C 130.210938 166.863281 146.726562 167.800781 163.234375 168.765625 C 164.238281 168.859375 165.25 168.808594 166.242188 168.984375 C 158.421875 168.8125 150.597656 168.738281 142.773438 168.59375 C 132.726562 168.453125 122.683594 168.28125 112.636719 168.136719 C 111.335938 168.082031 110.011719 168.203125 108.730469 167.925781 C 106.8125 167.496094 105.3125 165.898438 104.71875 164.0625 C 104.003906 161.878906 103.222656 159.710938 102.542969 157.515625 Z M 102.542969 157.515625 "/><path style=" stroke:none;fill-rule:nonzero;fill:rgb(100%,8.628845%,8.628845%);fill-opacity:1;" d="M 114.382812 171.199219 C 114.964844 171.128906 115.539062 170.992188 116.128906 170.996094 C 127.03125 171.425781 137.933594 171.820312 148.839844 172.140625 C 152.789062 172.242188 156.738281 172.375 160.691406 172.386719 C 161.132812 172.394531 161.574219 172.4375 162.011719 172.496094 C 160.445312 172.453125 158.882812 172.625 157.316406 172.648438 C 147.40625 173.050781 137.488281 173.074219 127.570312 173.03125 C 119.757812 172.992188 111.941406 172.855469 104.128906 172.671875 C 107.542969 172.152344 110.964844 171.695312 114.382812 171.199219 Z M 114.382812 171.199219 "/><path style=" stroke:none;fill-rule:nonzero;fill:rgb(100%,8.628845%,8.628845%);fill-opacity:1;" d="M 206.011719 172.402344 C 206.105469 172.167969 206.367188 172.207031 206.570312 172.207031 C 212.417969 172.488281 218.273438 172.738281 224.128906 172.601562 C 225.042969 174.410156 226.609375 175.894531 228.523438 176.59375 C 229.757812 177.066406 231.097656 177.253906 232.417969 177.195312 C 242.988281 177.863281 253.582031 178.414062 264.179688 178.265625 C 267.953125 178.125 271.722656 177.898438 275.484375 177.550781 C 278.40625 177.261719 281.328125 176.917969 284.207031 176.308594 C 285.441406 176.035156 286.683594 175.730469 287.855469 175.238281 C 288.464844 174.96875 289.105469 174.667969 289.476562 174.085938 C 290.082031 174.863281 290.351562 175.828125 290.628906 176.761719 C 290.882812 177.640625 290.714844 178.644531 290.109375 179.34375 C 289.234375 180.371094 287.9375 180.890625 286.695312 181.3125 C 284.097656 182.136719 281.378906 182.492188 278.683594 182.8125 C 271.679688 183.550781 264.636719 183.757812 257.601562 183.996094 C 243.054688 184.472656 228.480469 184.039062 213.976562 182.8125 C 211.640625 182.597656 209.304688 182.382812 206.972656 182.109375 C 206.792969 182.054688 206.492188 182.085938 206.460938 181.839844 C 206.46875 178.691406 206.300781 175.539062 206.011719 172.402344 Z M 206.011719 172.402344 "/><path style=" stroke:none;fill-rule:nonzero;fill:rgb(100%,8.628845%,8.628845%);fill-opacity:1;" d="M 195.8125 188.15625 C 199.753906 184.753906 201.777344 179.527344 201.996094 174.398438 C 202.347656 175.816406 202.332031 177.289062 202.425781 178.734375 C 202.472656 180.660156 202.535156 182.59375 202.421875 184.515625 C 202.503906 184.914062 203 185.023438 203.34375 185.097656 C 205.019531 185.355469 206.726562 185.332031 208.414062 185.464844 C 207.9375 186.257812 207.222656 186.867188 206.574219 187.515625 C 205.570312 188.480469 204.523438 189.402344 203.449219 190.285156 C 202.21875 191.289062 200.53125 191.21875 199.039062 191.410156 C 195.832031 191.636719 192.601562 191.878906 189.390625 191.582031 C 191.734375 190.898438 193.960938 189.761719 195.8125 188.15625 Z M 195.8125 188.15625 "/><path style=" stroke:none;fill-rule:nonzero;fill:rgb(100%,8.628845%,8.628845%);fill-opacity:1;" d="M 78.832031 177.042969 C 81.804688 177.273438 84.761719 177.65625 87.734375 177.929688 C 101.453125 179.316406 115.179688 180.636719 128.917969 181.835938 C 138.109375 182.625 147.300781 183.378906 156.511719 183.910156 C 158.769531 184 161.027344 184.171875 163.289062 184.191406 C 159.640625 184.242188 155.988281 184.144531 152.339844 184.117188 C 143.097656 184.039062 133.855469 183.964844 124.609375 183.925781 C 123.949219 183.910156 123.285156 183.949219 122.628906 183.898438 C 108.027344 181.625 93.433594 179.304688 78.832031 177.042969 Z M 78.832031 177.042969 "/><g clip-rule="nonzero" clip-path="url(#clip2)"><path style=" stroke:none;fill-rule:nonzero;fill:rgb(100%,8.628845%,8.628845%);fill-opacity:1;" d="M 265.527344 186.195312 C 268.386719 186.117188 271.246094 185.988281 274.09375 185.746094 C 273.605469 186.640625 272.769531 187.273438 272.007812 187.917969 C 268.460938 190.6875 264.125 192.554688 259.609375 192.816406 C 256.726562 192.980469 253.8125 192.410156 251.203125 191.175781 C 248.6875 190.003906 246.457031 188.273438 244.535156 186.28125 C 251.53125 186.367188 258.53125 186.382812 265.527344 186.195312 Z M 265.527344 186.195312 "/></g><g style="fill:rgb(32.939148%,32.939148%,32.939148%);fill-opacity:1;"><g transform="translate(123.719226, 214.828829)"><path style="stroke:none;" d="M 6.25 0 L 0 0 L 3.90625 -18.375 L 10.1875 -18.375 Z M 6.25 0 "/></g></g><g style="fill:rgb(32.939148%,32.939148%,32.939148%);fill-opacity:1;"><g transform="translate(134.917294, 214.828829)"><path style="stroke:none;" d="M 15.421875 0 L 8.65625 0 L 5.4375 -13.28125 L 2.609375 0 L 0 0 L 3.90625 -18.375 L 10.828125 -18.375 L 13.859375 -4.921875 L 16.71875 -18.375 L 19.390625 -18.375 Z M 15.421875 0 "/></g></g><g style="fill:rgb(32.939148%,32.939148%,32.939148%);fill-opacity:1;"><g transform="translate(155.316218, 214.828829)"><path style="stroke:none;" d="M 17.625 -16.171875 L 12.96875 -16.171875 L 9.515625 0 L 3.265625 0 L 6.71875 -16.171875 L 2.109375 -16.171875 L 2.640625 -18.375 L 18.109375 -18.375 Z M 17.625 -16.171875 "/></g></g><g style="fill:rgb(32.939148%,32.939148%,32.939148%);fill-opacity:1;"><g transform="translate(173.140063, 214.828829)"><path style="stroke:none;" d="M 16.03125 0 L 9.265625 0 L 8.859375 -4.59375 L 3.5 -4.59375 L 1.453125 0 L -1.359375 0 L 7.171875 -18.375 L 14.03125 -18.375 Z M 4.453125 -6.71875 L 8.65625 -6.71875 L 7.984375 -14.578125 Z M 4.453125 -6.71875 "/></g></g><g style="fill:rgb(32.939148%,32.939148%,32.939148%);fill-opacity:1;"><g transform="translate(192.323782, 214.828829)"><path style="stroke:none;" d="M 16.328125 -1.5625 C 15.835938 -1.332031 15.335938 -1.101562 14.828125 -0.875 C 14.316406 -0.65625 13.769531 -0.460938 13.1875 -0.296875 C 12.613281 -0.140625 11.984375 -0.015625 11.296875 0.078125 C 10.609375 0.179688 9.863281 0.234375 9.0625 0.234375 C 6.476562 0.234375 4.484375 -0.34375 3.078125 -1.5 C 1.679688 -2.65625 0.984375 -4.585938 0.984375 -7.296875 C 0.984375 -8.859375 1.222656 -10.328125 1.703125 -11.703125 C 2.191406 -13.085938 2.90625 -14.296875 3.84375 -15.328125 C 4.789062 -16.359375 5.957031 -17.171875 7.34375 -17.765625 C 8.738281 -18.367188 10.332031 -18.671875 12.125 -18.671875 C 12.96875 -18.671875 13.742188 -18.609375 14.453125 -18.484375 C 15.160156 -18.367188 15.796875 -18.21875 16.359375 -18.03125 C 16.929688 -17.851562 17.441406 -17.65625 17.890625 -17.4375 C 18.347656 -17.226562 18.757812 -17.03125 19.125 -16.84375 L 18.09375 -11.453125 L 12.875 -11.453125 C 12.894531 -11.648438 12.921875 -11.898438 12.953125 -12.203125 C 12.984375 -12.515625 13.003906 -12.828125 13.015625 -13.140625 C 13.035156 -13.460938 13.054688 -13.78125 13.078125 -14.09375 C 13.097656 -14.40625 13.109375 -14.664062 13.109375 -14.875 C 13.109375 -15.03125 13.097656 -15.207031 13.078125 -15.40625 C 13.054688 -15.613281 13.003906 -15.8125 12.921875 -16 C 12.847656 -16.195312 12.726562 -16.359375 12.5625 -16.484375 C 12.40625 -16.609375 12.191406 -16.671875 11.921875 -16.671875 C 11.421875 -16.671875 10.960938 -16.460938 10.546875 -16.046875 C 10.128906 -15.628906 9.753906 -15.078125 9.421875 -14.390625 C 9.097656 -13.710938 8.8125 -12.9375 8.5625 -12.0625 C 8.3125 -11.195312 8.101562 -10.316406 7.9375 -9.421875 C 7.78125 -8.523438 7.65625 -7.640625 7.5625 -6.765625 C 7.476562 -5.898438 7.4375 -5.140625 7.4375 -4.484375 C 7.4375 -4.296875 7.445312 -4.054688 7.46875 -3.765625 C 7.488281 -3.472656 7.546875 -3.191406 7.640625 -2.921875 C 7.734375 -2.648438 7.878906 -2.414062 8.078125 -2.21875 C 8.285156 -2.03125 8.5625 -1.9375 8.90625 -1.9375 C 9.507812 -1.9375 10.085938 -2.304688 10.640625 -3.046875 C 11.203125 -3.796875 11.695312 -5.125 12.125 -7.03125 L 17.484375 -7.03125 Z M 16.328125 -1.5625 "/></g></g><g style="fill:rgb(32.939148%,32.939148%,32.939148%);fill-opacity:1;"><g transform="translate(212.578037, 214.828829)"><path style="stroke:none;" d="M 17.625 -16.171875 L 12.96875 -16.171875 L 9.515625 0 L 3.265625 0 L 6.71875 -16.171875 L 2.109375 -16.171875 L 2.640625 -18.375 L 18.109375 -18.375 Z M 17.625 -16.171875 "/></g></g><g style="fill:rgb(32.939148%,32.939148%,32.939148%);fill-opacity:1;"><g transform="translate(127.981659, 235.060648)"><path style="stroke:none;" d="M 4.515625 -1 C 4.960938 -1 5.375 -1.109375 5.75 -1.328125 C 6.132812 -1.546875 6.460938 -1.832031 6.734375 -2.1875 L 7.578125 -1.375 C 7.203125 -0.9375 6.75 -0.578125 6.21875 -0.296875 C 5.695312 -0.0234375 5.128906 0.109375 4.515625 0.109375 C 3.960938 0.109375 3.4375 0 2.9375 -0.21875 C 2.445312 -0.445312 2.019531 -0.75 1.65625 -1.125 C 1.289062 -1.507812 1 -1.957031 0.78125 -2.46875 C 0.570312 -2.976562 0.46875 -3.519531 0.46875 -4.09375 C 0.46875 -4.675781 0.570312 -5.222656 0.78125 -5.734375 C 1 -6.242188 1.289062 -6.6875 1.65625 -7.0625 C 2.019531 -7.445312 2.445312 -7.75 2.9375 -7.96875 C 3.4375 -8.195312 3.960938 -8.3125 4.515625 -8.3125 C 5.035156 -8.3125 5.523438 -8.207031 5.984375 -8 C 6.441406 -7.800781 6.851562 -7.535156 7.21875 -7.203125 L 6.5 -6.28125 C 6.238281 -6.550781 5.9375 -6.773438 5.59375 -6.953125 C 5.257812 -7.128906 4.898438 -7.21875 4.515625 -7.21875 C 4.117188 -7.21875 3.75 -7.132812 3.40625 -6.96875 C 3.0625 -6.800781 2.757812 -6.570312 2.5 -6.28125 C 2.25 -6 2.046875 -5.671875 1.890625 -5.296875 C 1.742188 -4.921875 1.671875 -4.519531 1.671875 -4.09375 C 1.671875 -3.675781 1.742188 -3.28125 1.890625 -2.90625 C 2.046875 -2.53125 2.25 -2.203125 2.5 -1.921875 C 2.757812 -1.640625 3.0625 -1.414062 3.40625 -1.25 C 3.75 -1.082031 4.117188 -1 4.515625 -1 Z M 4.515625 -1 "/></g></g><g style="fill:rgb(32.939148%,32.939148%,32.939148%);fill-opacity:1;"><g transform="translate(137.652128, 235.060648)"><path style="stroke:none;" d="M 1.453125 0 L 0.125 0 L 3.546875 -8.203125 L 4.875 -8.203125 L 8.296875 0 L 6.984375 0 L 5.90625 -2.578125 L 2.515625 -2.578125 Z M 2.96875 -3.6875 L 5.4375 -3.6875 L 4.21875 -6.640625 Z M 2.96875 -3.6875 "/></g></g><g style="fill:rgb(32.939148%,32.939148%,32.939148%);fill-opacity:1;"><g transform="translate(147.854645, 235.060648)"><path style="stroke:none;" d="M 7.421875 0 L 5.90625 0 L 3.328125 -3.546875 L 1.890625 -3.546875 L 1.890625 0 L 0.671875 0 L 0.671875 -8.203125 L 4 -8.203125 C 4.332031 -8.203125 4.640625 -8.140625 4.921875 -8.015625 C 5.210938 -7.898438 5.460938 -7.738281 5.671875 -7.53125 C 5.890625 -7.320312 6.0625 -7.078125 6.1875 -6.796875 C 6.3125 -6.515625 6.375 -6.207031 6.375 -5.875 C 6.375 -5.601562 6.328125 -5.347656 6.234375 -5.109375 C 6.148438 -4.878906 6.03125 -4.664062 5.875 -4.46875 C 5.726562 -4.28125 5.550781 -4.113281 5.34375 -3.96875 C 5.132812 -3.820312 4.910156 -3.710938 4.671875 -3.640625 Z M 4 -4.671875 C 4.164062 -4.671875 4.320312 -4.703125 4.46875 -4.765625 C 4.613281 -4.835938 4.738281 -4.925781 4.84375 -5.03125 C 4.945312 -5.144531 5.03125 -5.273438 5.09375 -5.421875 C 5.15625 -5.578125 5.1875 -5.738281 5.1875 -5.90625 C 5.1875 -6.070312 5.15625 -6.226562 5.09375 -6.375 C 5.03125 -6.519531 4.945312 -6.648438 4.84375 -6.765625 C 4.738281 -6.878906 4.613281 -6.96875 4.46875 -7.03125 C 4.320312 -7.09375 4.164062 -7.125 4 -7.125 L 1.890625 -7.125 L 1.890625 -4.671875 Z M 4 -4.671875 "/></g></g><g style="fill:rgb(32.939148%,32.939148%,32.939148%);fill-opacity:1;"><g transform="translate(157.178119, 235.060648)"><path style="stroke:none;" d=""/></g></g><g style="fill:rgb(32.939148%,32.939148%,32.939148%);fill-opacity:1;"><g transform="translate(161.932858, 235.060648)"><path style="stroke:none;" d="M 3.953125 -8.203125 C 4.285156 -8.203125 4.59375 -8.140625 4.875 -8.015625 C 5.15625 -7.898438 5.398438 -7.738281 5.609375 -7.53125 C 5.828125 -7.320312 6 -7.078125 6.125 -6.796875 C 6.25 -6.515625 6.3125 -6.207031 6.3125 -5.875 C 6.3125 -5.550781 6.25 -5.242188 6.125 -4.953125 C 6 -4.671875 5.828125 -4.425781 5.609375 -4.21875 C 5.398438 -4.007812 5.15625 -3.84375 4.875 -3.71875 C 4.59375 -3.601562 4.285156 -3.546875 3.953125 -3.546875 L 1.828125 -3.546875 L 1.828125 0 L 0.625 0 L 0.625 -8.203125 Z M 3.953125 -4.671875 C 4.117188 -4.671875 4.269531 -4.703125 4.40625 -4.765625 C 4.550781 -4.835938 4.675781 -4.925781 4.78125 -5.03125 C 4.894531 -5.144531 4.984375 -5.273438 5.046875 -5.421875 C 5.109375 -5.578125 5.140625 -5.738281 5.140625 -5.90625 C 5.140625 -6.070312 5.109375 -6.226562 5.046875 -6.375 C 4.984375 -6.519531 4.894531 -6.648438 4.78125 -6.765625 C 4.675781 -6.878906 4.550781 -6.96875 4.40625 -7.03125 C 4.269531 -7.09375 4.117188 -7.125 3.953125 -7.125 L 1.828125 -7.125 L 1.828125 -4.671875 Z M 3.953125 -4.671875 "/></g></g><g style="fill:rgb(32.939148%,32.939148%,32.939148%);fill-opacity:1;"><g transform="translate(170.400415, 235.060648)"><path style="stroke:none;" d="M 1.453125 0 L 0.125 0 L 3.546875 -8.203125 L 4.875 -8.203125 L 8.296875 0 L 6.984375 0 L 5.90625 -2.578125 L 2.515625 -2.578125 Z M 2.96875 -3.6875 L 5.4375 -3.6875 L 4.21875 -6.640625 Z M 2.96875 -3.6875 "/></g></g><g style="fill:rgb(32.939148%,32.939148%,32.939148%);fill-opacity:1;"><g transform="translate(180.602934, 235.060648)"><path style="stroke:none;" d="M 7.421875 0 L 5.90625 0 L 3.328125 -3.546875 L 1.890625 -3.546875 L 1.890625 0 L 0.671875 0 L 0.671875 -8.203125 L 4 -8.203125 C 4.332031 -8.203125 4.640625 -8.140625 4.921875 -8.015625 C 5.210938 -7.898438 5.460938 -7.738281 5.671875 -7.53125 C 5.890625 -7.320312 6.0625 -7.078125 6.1875 -6.796875 C 6.3125 -6.515625 6.375 -6.207031 6.375 -5.875 C 6.375 -5.601562 6.328125 -5.347656 6.234375 -5.109375 C 6.148438 -4.878906 6.03125 -4.664062 5.875 -4.46875 C 5.726562 -4.28125 5.550781 -4.113281 5.34375 -3.96875 C 5.132812 -3.820312 4.910156 -3.710938 4.671875 -3.640625 Z M 4 -4.671875 C 4.164062 -4.671875 4.320312 -4.703125 4.46875 -4.765625 C 4.613281 -4.835938 4.738281 -4.925781 4.84375 -5.03125 C 4.945312 -5.144531 5.03125 -5.273438 5.09375 -5.421875 C 5.15625 -5.578125 5.1875 -5.738281 5.1875 -5.90625 C 5.1875 -6.070312 5.15625 -6.226562 5.09375 -6.375 C 5.03125 -6.519531 4.945312 -6.648438 4.84375 -6.765625 C 4.738281 -6.878906 4.613281 -6.96875 4.46875 -7.03125 C 4.320312 -7.09375 4.164062 -7.125 4 -7.125 L 1.890625 -7.125 L 1.890625 -4.671875 Z M 4 -4.671875 "/></g></g><g style="fill:rgb(32.939148%,32.939148%,32.939148%);fill-opacity:1;"><g transform="translate(189.926406, 235.060648)"><path style="stroke:none;" d="M 3.953125 -4.40625 L 7.890625 0.015625 L 6.265625 0.015625 L 3.15625 -3.59375 L 1.859375 -2.296875 L 1.859375 0 L 0.640625 0 L 0.640625 -8.203125 L 1.859375 -8.203125 L 1.859375 -3.796875 L 2.75 -4.765625 L 6.171875 -8.203125 L 7.75 -8.203125 Z M 3.953125 -4.40625 "/></g></g><g style="fill:rgb(32.939148%,32.939148%,32.939148%);fill-opacity:1;"><g transform="translate(199.758798, 235.060648)"><path style="stroke:none;" d="M 2.875 -7.21875 L 2.875 -1 L 3.46875 -1 L 3.46875 0 L 1.046875 0 L 1.046875 -1 L 1.671875 -1 L 1.671875 -7.21875 L 1.046875 -7.21875 L 1.046875 -8.203125 L 3.46875 -8.203125 L 3.46875 -7.21875 Z M 2.875 -7.21875 "/></g></g><g style="fill:rgb(32.939148%,32.939148%,32.939148%);fill-opacity:1;"><g transform="translate(206.040305, 235.060648)"><path style="stroke:none;" d="M 7.71875 -8.203125 L 7.71875 0 L 6.5 0 L 1.90625 -6.296875 L 1.90625 0 L 0.640625 0 L 0.640625 -8.203125 L 1.921875 -8.203125 L 6.5 -1.875 L 6.5 -8.203125 Z M 7.71875 -8.203125 "/></g></g><g style="fill:rgb(32.939148%,32.939148%,32.939148%);fill-opacity:1;"><g transform="translate(216.161854, 235.060648)"><path style="stroke:none;" d="M 5.234375 -4.390625 L 7.46875 -4.390625 L 7.46875 -1.375 C 7.09375 -0.9375 6.644531 -0.578125 6.125 -0.296875 C 5.601562 -0.0234375 5.03125 0.109375 4.40625 0.109375 C 3.851562 0.109375 3.328125 0 2.828125 -0.21875 C 2.335938 -0.445312 1.910156 -0.75 1.546875 -1.125 C 1.179688 -1.507812 0.894531 -1.957031 0.6875 -2.46875 C 0.476562 -2.976562 0.375 -3.519531 0.375 -4.09375 C 0.375 -4.664062 0.476562 -5.207031 0.6875 -5.71875 C 0.894531 -6.238281 1.179688 -6.6875 1.546875 -7.0625 C 1.910156 -7.445312 2.335938 -7.75 2.828125 -7.96875 C 3.328125 -8.195312 3.851562 -8.3125 4.40625 -8.3125 C 4.914062 -8.3125 5.398438 -8.210938 5.859375 -8.015625 C 6.316406 -7.816406 6.722656 -7.550781 7.078125 -7.21875 L 6.375 -6.3125 C 6.113281 -6.582031 5.816406 -6.800781 5.484375 -6.96875 C 5.148438 -7.132812 4.789062 -7.21875 4.40625 -7.21875 C 4.019531 -7.21875 3.65625 -7.132812 3.3125 -6.96875 C 2.96875 -6.800781 2.664062 -6.570312 2.40625 -6.28125 C 2.15625 -6 1.957031 -5.671875 1.8125 -5.296875 C 1.664062 -4.921875 1.59375 -4.519531 1.59375 -4.09375 C 1.59375 -3.675781 1.664062 -3.28125 1.8125 -2.90625 C 1.957031 -2.53125 2.15625 -2.203125 2.40625 -1.921875 C 2.664062 -1.640625 2.96875 -1.414062 3.3125 -1.25 C 3.65625 -1.082031 4.019531 -1 4.40625 -1 C 4.769531 -1 5.109375 -1.070312 5.421875 -1.21875 C 5.742188 -1.363281 6.03125 -1.554688 6.28125 -1.796875 L 6.28125 -3.265625 L 5.234375 -3.265625 Z M 5.234375 -4.390625 "/></g></g></g></svg>