<?xml version="1.0" encoding="UTF-8"?><svg xmlns="http://www.w3.org/2000/svg" xmlns:xlink="http://www.w3.org/1999/xlink" width="375pt" zoomAndPan="magnify" viewBox="0 0 375 374.999991" height="374.999991pt" preserveAspectRatio="xMidYMid meet" version="1.2"><defs><g/><clipPath xml:id="clip1" id="clip1"><path d="M 11.339844 239.535156 L 153 239.535156 L 153 307 L 11.339844 307 Z M 11.339844 239.535156 "/></clipPath><clipPath xml:id="clip2" id="clip2"><path d="M 308 337 L 351 337 L 351 348.285156 L 308 348.285156 Z M 308 337 "/></clipPath><clipPath xml:id="clip3" id="clip3"><path d="M 47 142.589844 L 105.25 142.589844 L 105.25 258.464844 L 47 258.464844 Z M 47 142.589844 "/></clipPath><clipPath xml:id="clip4" id="clip4"><path d="M 34.851562 37 L 113 37 L 113 165 L 34.851562 165 Z M 34.851562 37 "/></clipPath><clipPath xml:id="clip5" id="clip5"><path d="M 36.457031 26.753906 L 130.851562 26.753906 L 130.851562 164.957031 L 36.457031 164.957031 Z M 36.457031 26.753906 "/></clipPath></defs><g xml:id="surface1" id="surface1"><g clip-rule="nonzero" clip-path="url(#clip1)"><path style=" stroke:none;fill-rule:nonzero;fill:rgb(100%,8.628845%,8.628845%);fill-opacity:1;" d="M 144.167969 240.488281 C 146.789062 240.0625 149.421875 239.574219 152.085938 239.535156 C 144.40625 240.722656 136.8125 242.601562 129.558594 245.410156 C 122.867188 247.996094 116.550781 251.53125 110.84375 255.878906 C 105.53125 259.859375 100.777344 264.5 95.730469 268.796875 C 90.050781 273.519531 83.839844 277.570312 77.421875 281.210938 C 63.660156 288.945312 48.949219 294.855469 33.976562 299.785156 C 27.519531 301.878906 21.007812 303.820312 14.429688 305.492188 C 13.457031 305.707031 12.507812 306.046875 11.507812 306.105469 C 15.261719 305.191406 18.945312 304.011719 22.652344 302.917969 C 38.339844 298.085938 53.777344 292.265625 68.355469 284.664062 C 78.640625 279.277344 88.503906 272.953125 97.152344 265.164062 C 99.214844 263.378906 101.070312 261.375 103.160156 259.613281 C 114.714844 249.589844 129.179688 243.207031 144.167969 240.488281 Z M 144.167969 240.488281 "/></g><path style=" stroke:none;fill-rule:nonzero;fill:rgb(100%,8.628845%,8.628845%);fill-opacity:1;" d="M 180.5625 241.714844 C 197.203125 240.621094 213.90625 241.914062 230.390625 244.246094 C 234.699219 244.578125 238.722656 246.234375 242.78125 247.585938 C 255.496094 251.949219 268.074219 256.753906 280.265625 262.421875 C 269.855469 261.488281 259.390625 261.183594 248.9375 261.15625 C 236.441406 261.097656 223.953125 261.464844 211.476562 262.082031 C 208.503906 262.246094 205.5 262.339844 202.5625 261.796875 C 200.230469 261.363281 197.929688 260.472656 196.101562 258.921875 C 191.136719 254.464844 186.421875 249.703125 181.058594 245.714844 C 180.132812 244.984375 178.976562 244.484375 178.3125 243.46875 C 178.054688 243.128906 178.007812 242.574219 178.402344 242.316406 C 179.019531 241.863281 179.824219 241.800781 180.5625 241.714844 Z M 180.5625 241.714844 "/><path style=" stroke:none;fill-rule:nonzero;fill:rgb(100%,8.628845%,8.628845%);fill-opacity:1;" d="M 153.921875 244.742188 C 158.167969 244.308594 162.523438 244.511719 166.632812 245.730469 C 172.101562 247.289062 177.039062 250.445312 181.054688 254.445312 C 184.425781 257.777344 187.167969 261.703125 189.460938 265.84375 C 173.015625 266.511719 156.574219 267.121094 140.128906 267.796875 C 137.871094 262.875 134.953125 258.1875 131.105469 254.351562 C 130.472656 253.679688 129.59375 253.152344 129.3125 252.226562 C 129.261719 251.496094 130.066406 251.183594 130.605469 250.914062 C 133.382812 249.746094 136.242188 248.777344 139.121094 247.882812 C 143.949219 246.414062 148.890625 245.238281 153.921875 244.742188 Z M 153.921875 244.742188 "/><path style=" stroke:none;fill-rule:nonzero;fill:rgb(100%,8.628845%,8.628845%);fill-opacity:1;" d="M 121.742188 255.023438 C 122.824219 254.488281 123.882812 253.738281 125.132812 253.691406 C 126.085938 253.792969 126.824219 254.5 127.542969 255.074219 C 129.65625 256.976562 131.296875 259.332031 132.855469 261.695312 C 133.722656 263.039062 134.546875 264.410156 135.3125 265.820312 C 135.570312 266.332031 135.867188 266.960938 135.605469 267.53125 C 135.222656 268.117188 134.4375 268.046875 133.828125 268.066406 C 129.320312 268.007812 124.8125 268.085938 120.308594 268.21875 C 115.996094 268.410156 111.671875 268.644531 107.40625 269.339844 C 105.851562 269.609375 104.277344 269.902344 102.832031 270.558594 C 106.121094 264.941406 111.25 260.621094 116.890625 257.496094 C 118.464844 256.589844 120.113281 255.828125 121.742188 255.023438 Z M 121.742188 255.023438 "/><path style=" stroke:none;fill-rule:nonzero;fill:rgb(100%,8.628845%,8.628845%);fill-opacity:1;" d="M 226.335938 264.875 C 236.1875 264.636719 246.039062 264.378906 255.882812 263.925781 C 266.503906 263.5625 277.15625 263.714844 287.742188 264.695312 C 296.902344 265.5 306.042969 266.476562 315.15625 267.679688 C 319.964844 268.328125 324.765625 269.023438 329.523438 269.976562 C 336.570312 271.347656 343.695312 272.746094 350.304688 275.644531 C 352.292969 276.53125 354.234375 277.53125 356.078125 278.6875 C 352.328125 277.238281 348.480469 276.003906 344.527344 275.246094 C 342.847656 274.902344 341.136719 274.734375 339.457031 274.402344 C 337.546875 274.242188 335.632812 274.417969 333.722656 274.394531 C 327.78125 274.4375 321.824219 274.628906 315.933594 275.433594 C 315.164062 275.558594 314.273438 275.695312 313.792969 276.378906 C 313.371094 277.054688 313.691406 277.882812 313.996094 278.535156 C 316.039062 282.140625 317.867188 285.863281 319.765625 289.546875 C 321.0625 292.140625 322.417969 294.710938 323.675781 297.328125 C 318.515625 289.097656 311.402344 282.125 303.15625 277.007812 C 301.746094 276.140625 300.304688 275.316406 298.808594 274.609375 C 296.773438 273.671875 294.570312 273.160156 292.367188 272.808594 C 288.125 272.261719 283.9375 271.351562 279.722656 270.65625 C 259.605469 267.164062 239.210938 265.117188 218.789062 265.089844 C 221.300781 264.914062 223.820312 264.949219 226.335938 264.875 Z M 226.335938 264.875 "/><path style=" stroke:none;fill-rule:nonzero;fill:rgb(100%,8.628845%,8.628845%);fill-opacity:1;" d="M 276.550781 276.050781 C 279.734375 276.71875 282.949219 277.878906 285.394531 280.101562 C 286.8125 281.367188 287.859375 283.050781 288.3125 284.898438 C 288.609375 286.113281 288.453125 287.476562 287.703125 288.5 C 286.796875 289.753906 285.34375 290.480469 283.90625 290.949219 C 285.226562 289.945312 286.582031 288.804688 287.136719 287.183594 C 287.667969 285.667969 287.167969 283.996094 286.242188 282.746094 C 284.792969 280.765625 282.738281 279.339844 280.65625 278.101562 C 279.335938 277.328125 277.960938 276.644531 276.550781 276.050781 Z M 276.550781 276.050781 "/><path style=" stroke:none;fill-rule:nonzero;fill:rgb(100%,8.628845%,8.628845%);fill-opacity:1;" d="M 337.808594 276.039062 C 338.695312 275.929688 339.589844 275.882812 340.480469 275.980469 C 344.6875 276.828125 348.9375 277.558594 353.027344 278.90625 C 354.21875 279.300781 355.414062 279.78125 356.390625 280.597656 C 357.691406 281.625 358.527344 283.121094 359.0625 284.667969 C 360.003906 287.445312 360.992188 290.210938 361.675781 293.066406 C 361.953125 294.28125 362.265625 295.640625 361.632812 296.804688 C 361.269531 297.554688 360.402344 297.925781 359.601562 297.871094 C 351.570312 297.261719 343.515625 296.945312 335.460938 296.8125 C 333.398438 296.730469 331.269531 297.011719 329.28125 296.324219 C 327.046875 295.554688 325.421875 293.707031 324.105469 291.824219 C 321.953125 288.6875 320.03125 285.398438 318.242188 282.042969 C 317.6875 280.910156 317.171875 279.613281 317.496094 278.335938 C 317.746094 277.402344 318.746094 276.988281 319.632812 276.929688 C 325.671875 276.332031 331.753906 276.339844 337.808594 276.039062 Z M 337.808594 276.039062 "/><path style=" stroke:none;fill-rule:nonzero;fill:rgb(100%,8.628845%,8.628845%);fill-opacity:1;" d="M 271.566406 276.246094 C 274.710938 275.996094 277.6875 277.421875 280.320312 278.992188 C 282 280.015625 283.628906 281.222656 284.765625 282.855469 C 285.691406 284.183594 286.167969 285.871094 285.867188 287.476562 C 285.433594 288.925781 284.113281 289.929688 282.707031 290.347656 C 280.917969 290.878906 278.996094 290.804688 277.175781 290.457031 C 272.871094 289.621094 269.152344 286.492188 267.40625 282.492188 C 266.863281 281.292969 266.785156 279.78125 267.648438 278.710938 C 268.636719 277.511719 269.957031 276.390625 271.566406 276.246094 Z M 271.566406 276.246094 "/><path style=" stroke:none;fill-rule:nonzero;fill:rgb(100%,8.628845%,8.628845%);fill-opacity:1;" d="M 292.097656 276.332031 C 295.207031 275.800781 298.328125 277.023438 300.855469 278.773438 C 302.472656 279.878906 303.90625 281.234375 305.230469 282.671875 C 306.445312 283.921875 307.21875 285.550781 307.644531 287.226562 C 307.941406 288.574219 307.960938 290.140625 307.078125 291.28125 C 306.035156 292.601562 304.230469 293.027344 302.628906 292.992188 C 298.320312 292.582031 294.230469 290.246094 291.691406 286.738281 C 290.765625 285.480469 290.019531 284.089844 289.460938 282.632812 C 289.007812 281.296875 288.882812 279.777344 289.445312 278.453125 C 289.910156 277.363281 290.933594 276.542969 292.097656 276.332031 Z M 292.097656 276.332031 "/><path style=" stroke:none;fill-rule:nonzero;fill:rgb(100%,8.628845%,8.628845%);fill-opacity:1;" d="M 299.320312 276.800781 C 302.0625 278.292969 304.800781 279.855469 307.160156 281.929688 C 308.34375 283.003906 309.484375 284.214844 310.109375 285.714844 C 310.597656 286.835938 310.652344 288.183594 310.09375 289.285156 C 309.667969 290.191406 308.914062 290.882812 308.136719 291.488281 C 308.945312 290.015625 309.140625 288.230469 308.605469 286.636719 C 307.785156 284.085938 305.910156 282.050781 303.964844 280.285156 C 302.527344 278.976562 300.90625 277.90625 299.320312 276.800781 Z M 299.320312 276.800781 "/><path style=" stroke:none;fill-rule:nonzero;fill:rgb(100%,8.628845%,8.628845%);fill-opacity:1;" d="M 359.863281 282.636719 C 359.941406 282.59375 360.097656 282.511719 360.175781 282.46875 C 360.9375 282.632812 361.527344 283.207031 362.074219 283.734375 C 363.667969 285.421875 364.777344 287.503906 365.710938 289.613281 C 366.332031 291.085938 367.019531 292.558594 367.242188 294.15625 C 367.308594 294.839844 367.371094 295.652344 366.867188 296.195312 C 366.546875 296.402344 366.199219 296.144531 365.960938 295.941406 C 363.894531 293.902344 362.863281 291.101562 361.554688 288.5625 C 360.867188 287.085938 360.125 285.613281 359.742188 284.023438 C 359.671875 283.574219 359.535156 283.019531 359.863281 282.636719 Z M 359.863281 282.636719 "/><path style=" stroke:none;fill-rule:nonzero;fill:rgb(100%,8.628845%,8.628845%);fill-opacity:1;" d="M 221.046875 287.671875 C 224.527344 287.050781 228.210938 287.074219 231.542969 288.378906 C 234.46875 289.476562 236.996094 291.484375 238.945312 293.910156 C 241.375 296.933594 242.992188 300.539062 244.070312 304.246094 C 245.230469 308.320312 245.785156 312.5625 245.730469 316.796875 C 245.511719 320.566406 245.011719 324.335938 244.015625 327.984375 C 243.074219 331.40625 241.667969 334.75 239.515625 337.59375 C 237.625 340.105469 235.105469 342.171875 232.195312 343.382812 C 228.898438 344.78125 225.210938 345.117188 221.675781 344.652344 C 224.753906 344.355469 227.800781 343.359375 230.289062 341.488281 C 233.113281 339.402344 235.144531 336.40625 236.535156 333.214844 C 238.335938 329.066406 239.238281 324.582031 239.761719 320.109375 C 240.328125 315.75 240.246094 311.328125 239.703125 306.972656 C 239.226562 303.378906 238.351562 299.796875 236.683594 296.5625 C 235.25 293.78125 233.144531 291.296875 230.425781 289.714844 C 227.621094 288.03125 224.28125 287.464844 221.046875 287.671875 Z M 221.046875 287.671875 "/><path style=" stroke:none;fill-rule:nonzero;fill:rgb(100%,8.628845%,8.628845%);fill-opacity:1;" d="M 104.667969 297.367188 C 106.28125 300.140625 108.019531 302.890625 110.292969 305.179688 C 111.617188 306.492188 113.152344 307.621094 114.902344 308.289062 C 116.742188 309.015625 118.730469 309.199219 120.6875 309.34375 C 144.375 310.78125 168.070312 312.128906 191.761719 313.515625 C 193.195312 313.648438 194.652344 313.578125 196.074219 313.832031 C 184.855469 313.582031 173.625 313.472656 162.402344 313.269531 C 147.984375 313.066406 133.570312 312.820312 119.152344 312.613281 C 117.285156 312.53125 115.386719 312.707031 113.550781 312.3125 C 110.796875 311.695312 108.644531 309.398438 107.792969 306.761719 C 106.765625 303.625 105.648438 300.515625 104.667969 297.367188 Z M 104.667969 297.367188 "/><path style=" stroke:none;fill-rule:nonzero;fill:rgb(100%,8.628845%,8.628845%);fill-opacity:1;" d="M 121.660156 317.007812 C 122.492188 316.910156 123.320312 316.710938 124.164062 316.71875 C 139.808594 317.335938 155.457031 317.898438 171.105469 318.363281 C 176.769531 318.503906 182.4375 318.695312 188.109375 318.710938 C 188.742188 318.726562 189.375 318.785156 190.003906 318.871094 C 187.757812 318.808594 185.515625 319.058594 183.269531 319.089844 C 169.046875 319.667969 154.8125 319.703125 140.585938 319.640625 C 129.371094 319.585938 118.15625 319.390625 106.949219 319.125 C 111.847656 318.378906 116.757812 317.722656 121.660156 317.007812 Z M 121.660156 317.007812 "/><path style=" stroke:none;fill-rule:nonzero;fill:rgb(100%,8.628845%,8.628845%);fill-opacity:1;" d="M 253.144531 318.738281 C 253.273438 318.398438 253.652344 318.457031 253.945312 318.457031 C 262.335938 318.859375 270.738281 319.21875 279.140625 319.023438 C 280.453125 321.617188 282.699219 323.75 285.441406 324.75 C 287.21875 325.433594 289.136719 325.703125 291.035156 325.617188 C 306.203125 326.578125 321.402344 327.371094 336.609375 327.152344 C 342.023438 326.949219 347.433594 326.625 352.828125 326.125 C 357.023438 325.710938 361.21875 325.21875 365.34375 324.34375 C 367.121094 323.949219 368.902344 323.515625 370.585938 322.808594 C 371.457031 322.421875 372.375 321.988281 372.90625 321.152344 C 373.777344 322.269531 374.164062 323.65625 374.5625 324.992188 C 374.929688 326.257812 374.683594 327.699219 373.816406 328.703125 C 372.558594 330.175781 370.703125 330.925781 368.914062 331.527344 C 365.1875 332.710938 361.292969 333.222656 357.421875 333.679688 C 347.371094 334.738281 337.261719 335.039062 327.167969 335.378906 C 306.292969 336.0625 285.382812 335.445312 264.570312 333.679688 C 261.21875 333.375 257.863281 333.066406 254.523438 332.671875 C 254.261719 332.597656 253.832031 332.636719 253.785156 332.285156 C 253.796875 327.765625 253.554688 323.238281 253.144531 318.738281 Z M 253.144531 318.738281 "/><path style=" stroke:none;fill-rule:nonzero;fill:rgb(100%,8.628845%,8.628845%);fill-opacity:1;" d="M 238.503906 341.351562 C 244.164062 336.46875 247.0625 328.964844 247.382812 321.605469 C 247.882812 323.636719 247.863281 325.75 247.996094 327.828125 C 248.0625 330.59375 248.152344 333.367188 247.992188 336.128906 C 248.109375 336.699219 248.820312 336.855469 249.3125 336.964844 C 251.71875 337.332031 254.164062 337.296875 256.589844 337.488281 C 255.90625 338.628906 254.878906 339.503906 253.945312 340.4375 C 252.507812 341.820312 251.003906 343.140625 249.464844 344.410156 C 247.695312 345.851562 245.277344 345.75 243.136719 346.023438 C 238.535156 346.351562 233.894531 346.695312 229.289062 346.273438 C 232.652344 345.289062 235.847656 343.65625 238.503906 341.351562 Z M 238.503906 341.351562 "/><path style=" stroke:none;fill-rule:nonzero;fill:rgb(100%,8.628845%,8.628845%);fill-opacity:1;" d="M 70.648438 325.402344 C 74.914062 325.730469 79.15625 326.277344 83.417969 326.671875 C 103.105469 328.660156 122.804688 330.558594 142.519531 332.277344 C 155.707031 333.410156 168.898438 334.496094 182.109375 335.257812 C 185.355469 335.390625 188.589844 335.632812 191.835938 335.660156 C 186.597656 335.734375 181.363281 335.59375 176.125 335.554688 C 162.863281 335.441406 149.601562 335.335938 136.335938 335.28125 C 135.386719 335.257812 134.4375 335.3125 133.488281 335.242188 C 112.539062 331.976562 91.601562 328.644531 70.648438 325.402344 Z M 70.648438 325.402344 "/><g clip-rule="nonzero" clip-path="url(#clip2)"><path style=" stroke:none;fill-rule:nonzero;fill:rgb(100%,8.628845%,8.628845%);fill-opacity:1;" d="M 338.542969 338.539062 C 342.648438 338.425781 346.746094 338.238281 350.835938 337.894531 C 350.132812 339.179688 348.9375 340.085938 347.839844 341.015625 C 342.75 344.984375 336.527344 347.664062 330.050781 348.042969 C 325.914062 348.277344 321.730469 347.460938 317.988281 345.691406 C 314.378906 344.003906 311.175781 341.523438 308.417969 338.660156 C 318.460938 338.785156 328.503906 338.804688 338.542969 338.539062 Z M 338.542969 338.539062 "/></g><g clip-rule="nonzero" clip-path="url(#clip3)"><path style=" stroke:none;fill-rule:evenodd;fill:rgb(37.249756%,73.329163%,92.549133%);fill-opacity:1;" d="M 105.203125 163.839844 L 105.203125 195.382812 L 68.703125 174.351562 L 68.703125 142.960938 L 86.511719 153.230469 L 86.511719 153.03125 L 104.515625 163.445312 C 104.75 163.582031 104.980469 163.71875 105.203125 163.839844 Z M 69.980469 247.460938 L 69.980469 225.15625 L 89.265625 236.160156 L 89.265625 258.464844 Z M 69.785156 192.730469 L 69.785156 218.867188 L 47.15625 205.996094 L 47.15625 179.855469 L 69.785156 192.730469 "/></g><g clip-rule="nonzero" clip-path="url(#clip4)"><path style=" stroke:none;fill-rule:evenodd;fill:rgb(92.939758%,7.839966%,43.528748%);fill-opacity:1;" d="M 58.472656 97.710938 L 63.78125 85.328125 L 69.097656 103.804688 Z M 92.117188 91.621094 L 85.234375 87.6875 L 85.234375 126.011719 L 92.117188 129.941406 Z M 60.4375 73.441406 L 47.15625 104.195312 L 54.042969 108.125 L 56.011719 103.605469 L 71.554688 112.449219 L 73.621094 119.328125 L 80.410156 123.257812 L 67.230469 77.371094 Z M 36.828125 37.578125 C 38.203125 36.988281 40.203125 37.414062 42.828125 38.851562 L 67.027344 52.902344 L 67.027344 52.808594 L 72.636719 56.050781 L 72.636719 56.148438 L 104.515625 74.425781 C 109.761719 77.503906 112.386719 82.121094 112.386719 88.277344 L 112.386719 158.925781 C 112.386719 161.484375 111.929688 163.253906 111.011719 164.234375 C 110.746094 164.558594 110.386719 164.761719 109.925781 164.824219 C 108.804688 165.238281 107.230469 164.90625 105.203125 163.839844 C 104.980469 163.71875 104.75 163.582031 104.515625 163.445312 L 86.511719 153.03125 L 86.511719 153.230469 L 68.703125 142.960938 L 60.4375 138.195312 L 60.4375 138 L 42.828125 127.878906 C 37.515625 124.796875 34.859375 120.179688 34.859375 114.023438 L 34.859375 43.472656 C 34.859375 40.328125 35.515625 38.363281 36.828125 37.578125 "/></g><g clip-rule="nonzero" clip-path="url(#clip5)"><path style=" stroke:none;fill-rule:evenodd;fill:rgb(71.369934%,9.408569%,25.099182%);fill-opacity:1;" d="M 36.828125 37.578125 L 45.976562 32.367188 L 46.074219 32.367188 L 55.222656 27.0625 L 55.324219 27.0625 C 56.570312 26.40625 58.570312 26.800781 61.324219 28.242188 L 122.914062 63.910156 C 128.226562 66.925781 130.882812 71.476562 130.882812 77.570312 L 130.882812 148.21875 C 130.882812 151.820312 130.027344 153.851562 128.328125 154.308594 L 120.160156 159.023438 C 119.894531 159.289062 119.535156 159.484375 119.078125 159.613281 L 111.011719 164.234375 C 111.929688 163.253906 112.386719 161.484375 112.386719 158.925781 L 112.386719 88.277344 C 112.386719 82.121094 109.761719 77.503906 104.515625 74.425781 L 72.636719 56.148438 L 72.636719 56.050781 L 67.027344 52.808594 L 67.027344 52.902344 L 42.828125 38.851562 C 40.203125 37.414062 38.203125 36.988281 36.828125 37.578125 "/></g><path style=" stroke:none;fill-rule:evenodd;fill:rgb(92.939758%,7.839966%,43.528748%);fill-opacity:1;" d="M 60.4375 73.441406 L 67.230469 77.371094 L 80.410156 123.257812 L 73.621094 119.328125 L 71.554688 112.449219 L 56.011719 103.605469 L 54.042969 108.125 L 47.15625 104.195312 Z M 92.117188 91.621094 L 92.117188 129.941406 L 85.234375 126.011719 L 85.234375 87.6875 Z M 58.472656 97.710938 L 69.097656 103.804688 L 63.78125 85.328125 Z M 58.472656 97.710938 "/><g style="fill:rgb(32.939148%,32.939148%,32.939148%);fill-opacity:1;"><g transform="translate(178.583475, 148.086758)"><path style="stroke:none;" d="M 6.25 0 L 0 0 L 3.90625 -18.375 L 10.1875 -18.375 Z M 6.25 0 "/></g></g><g style="fill:rgb(32.939148%,32.939148%,32.939148%);fill-opacity:1;"><g transform="translate(189.781543, 148.086758)"><path style="stroke:none;" d="M 15.421875 0 L 8.65625 0 L 5.4375 -13.28125 L 2.609375 0 L 0 0 L 3.90625 -18.375 L 10.828125 -18.375 L 13.859375 -4.921875 L 16.71875 -18.375 L 19.390625 -18.375 Z M 15.421875 0 "/></g></g><g style="fill:rgb(32.939148%,32.939148%,32.939148%);fill-opacity:1;"><g transform="translate(210.180467, 148.086758)"><path style="stroke:none;" d="M 17.625 -16.171875 L 12.96875 -16.171875 L 9.515625 0 L 3.265625 0 L 6.71875 -16.171875 L 2.109375 -16.171875 L 2.640625 -18.375 L 18.109375 -18.375 Z M 17.625 -16.171875 "/></g></g><g style="fill:rgb(32.939148%,32.939148%,32.939148%);fill-opacity:1;"><g transform="translate(228.004312, 148.086758)"><path style="stroke:none;" d="M 16.03125 0 L 9.265625 0 L 8.859375 -4.59375 L 3.5 -4.59375 L 1.453125 0 L -1.359375 0 L 7.171875 -18.375 L 14.03125 -18.375 Z M 4.453125 -6.71875 L 8.65625 -6.71875 L 7.984375 -14.578125 Z M 4.453125 -6.71875 "/></g></g><g style="fill:rgb(32.939148%,32.939148%,32.939148%);fill-opacity:1;"><g transform="translate(247.188031, 148.086758)"><path style="stroke:none;" d="M 16.328125 -1.5625 C 15.835938 -1.332031 15.335938 -1.101562 14.828125 -0.875 C 14.316406 -0.65625 13.769531 -0.460938 13.1875 -0.296875 C 12.613281 -0.140625 11.984375 -0.015625 11.296875 0.078125 C 10.609375 0.179688 9.863281 0.234375 9.0625 0.234375 C 6.476562 0.234375 4.484375 -0.34375 3.078125 -1.5 C 1.679688 -2.65625 0.984375 -4.585938 0.984375 -7.296875 C 0.984375 -8.859375 1.222656 -10.328125 1.703125 -11.703125 C 2.191406 -13.085938 2.90625 -14.296875 3.84375 -15.328125 C 4.789062 -16.359375 5.957031 -17.171875 7.34375 -17.765625 C 8.738281 -18.367188 10.332031 -18.671875 12.125 -18.671875 C 12.96875 -18.671875 13.742188 -18.609375 14.453125 -18.484375 C 15.160156 -18.367188 15.796875 -18.21875 16.359375 -18.03125 C 16.929688 -17.851562 17.441406 -17.65625 17.890625 -17.4375 C 18.347656 -17.226562 18.757812 -17.03125 19.125 -16.84375 L 18.09375 -11.453125 L 12.875 -11.453125 C 12.894531 -11.648438 12.921875 -11.898438 12.953125 -12.203125 C 12.984375 -12.515625 13.003906 -12.828125 13.015625 -13.140625 C 13.035156 -13.460938 13.054688 -13.78125 13.078125 -14.09375 C 13.097656 -14.40625 13.109375 -14.664062 13.109375 -14.875 C 13.109375 -15.03125 13.097656 -15.207031 13.078125 -15.40625 C 13.054688 -15.613281 13.003906 -15.8125 12.921875 -16 C 12.847656 -16.195312 12.726562 -16.359375 12.5625 -16.484375 C 12.40625 -16.609375 12.191406 -16.671875 11.921875 -16.671875 C 11.421875 -16.671875 10.960938 -16.460938 10.546875 -16.046875 C 10.128906 -15.628906 9.753906 -15.078125 9.421875 -14.390625 C 9.097656 -13.710938 8.8125 -12.9375 8.5625 -12.0625 C 8.3125 -11.195312 8.101562 -10.316406 7.9375 -9.421875 C 7.78125 -8.523438 7.65625 -7.640625 7.5625 -6.765625 C 7.476562 -5.898438 7.4375 -5.140625 7.4375 -4.484375 C 7.4375 -4.296875 7.445312 -4.054688 7.46875 -3.765625 C 7.488281 -3.472656 7.546875 -3.191406 7.640625 -2.921875 C 7.734375 -2.648438 7.878906 -2.414062 8.078125 -2.21875 C 8.285156 -2.03125 8.5625 -1.9375 8.90625 -1.9375 C 9.507812 -1.9375 10.085938 -2.304688 10.640625 -3.046875 C 11.203125 -3.796875 11.695312 -5.125 12.125 -7.03125 L 17.484375 -7.03125 Z M 16.328125 -1.5625 "/></g></g><g style="fill:rgb(32.939148%,32.939148%,32.939148%);fill-opacity:1;"><g transform="translate(267.442286, 148.086758)"><path style="stroke:none;" d="M 17.625 -16.171875 L 12.96875 -16.171875 L 9.515625 0 L 3.265625 0 L 6.71875 -16.171875 L 2.109375 -16.171875 L 2.640625 -18.375 L 18.109375 -18.375 Z M 17.625 -16.171875 "/></g></g><g style="fill:rgb(32.939148%,32.939148%,32.939148%);fill-opacity:1;"><g transform="translate(182.845905, 168.318577)"><path style="stroke:none;" d="M 4.515625 -1 C 4.960938 -1 5.375 -1.109375 5.75 -1.328125 C 6.132812 -1.546875 6.460938 -1.832031 6.734375 -2.1875 L 7.578125 -1.375 C 7.203125 -0.9375 6.75 -0.578125 6.21875 -0.296875 C 5.695312 -0.0234375 5.128906 0.109375 4.515625 0.109375 C 3.960938 0.109375 3.4375 0 2.9375 -0.21875 C 2.445312 -0.445312 2.019531 -0.75 1.65625 -1.125 C 1.289062 -1.507812 1 -1.957031 0.78125 -2.46875 C 0.570312 -2.976562 0.46875 -3.519531 0.46875 -4.09375 C 0.46875 -4.675781 0.570312 -5.222656 0.78125 -5.734375 C 1 -6.242188 1.289062 -6.6875 1.65625 -7.0625 C 2.019531 -7.445312 2.445312 -7.75 2.9375 -7.96875 C 3.4375 -8.195312 3.960938 -8.3125 4.515625 -8.3125 C 5.035156 -8.3125 5.523438 -8.207031 5.984375 -8 C 6.441406 -7.800781 6.851562 -7.535156 7.21875 -7.203125 L 6.5 -6.28125 C 6.238281 -6.550781 5.9375 -6.773438 5.59375 -6.953125 C 5.257812 -7.128906 4.898438 -7.21875 4.515625 -7.21875 C 4.117188 -7.21875 3.75 -7.132812 3.40625 -6.96875 C 3.0625 -6.800781 2.757812 -6.570312 2.5 -6.28125 C 2.25 -6 2.046875 -5.671875 1.890625 -5.296875 C 1.742188 -4.921875 1.671875 -4.519531 1.671875 -4.09375 C 1.671875 -3.675781 1.742188 -3.28125 1.890625 -2.90625 C 2.046875 -2.53125 2.25 -2.203125 2.5 -1.921875 C 2.757812 -1.640625 3.0625 -1.414062 3.40625 -1.25 C 3.75 -1.082031 4.117188 -1 4.515625 -1 Z M 4.515625 -1 "/></g></g><g style="fill:rgb(32.939148%,32.939148%,32.939148%);fill-opacity:1;"><g transform="translate(192.516374, 168.318577)"><path style="stroke:none;" d="M 1.453125 0 L 0.125 0 L 3.546875 -8.203125 L 4.875 -8.203125 L 8.296875 0 L 6.984375 0 L 5.90625 -2.578125 L 2.515625 -2.578125 Z M 2.96875 -3.6875 L 5.4375 -3.6875 L 4.21875 -6.640625 Z M 2.96875 -3.6875 "/></g></g><g style="fill:rgb(32.939148%,32.939148%,32.939148%);fill-opacity:1;"><g transform="translate(202.718891, 168.318577)"><path style="stroke:none;" d="M 7.421875 0 L 5.90625 0 L 3.328125 -3.546875 L 1.890625 -3.546875 L 1.890625 0 L 0.671875 0 L 0.671875 -8.203125 L 4 -8.203125 C 4.332031 -8.203125 4.640625 -8.140625 4.921875 -8.015625 C 5.210938 -7.898438 5.460938 -7.738281 5.671875 -7.53125 C 5.890625 -7.320312 6.0625 -7.078125 6.1875 -6.796875 C 6.3125 -6.515625 6.375 -6.207031 6.375 -5.875 C 6.375 -5.601562 6.328125 -5.347656 6.234375 -5.109375 C 6.148438 -4.878906 6.03125 -4.664062 5.875 -4.46875 C 5.726562 -4.28125 5.550781 -4.113281 5.34375 -3.96875 C 5.132812 -3.820312 4.910156 -3.710938 4.671875 -3.640625 Z M 4 -4.671875 C 4.164062 -4.671875 4.320312 -4.703125 4.46875 -4.765625 C 4.613281 -4.835938 4.738281 -4.925781 4.84375 -5.03125 C 4.945312 -5.144531 5.03125 -5.273438 5.09375 -5.421875 C 5.15625 -5.578125 5.1875 -5.738281 5.1875 -5.90625 C 5.1875 -6.070312 5.15625 -6.226562 5.09375 -6.375 C 5.03125 -6.519531 4.945312 -6.648438 4.84375 -6.765625 C 4.738281 -6.878906 4.613281 -6.96875 4.46875 -7.03125 C 4.320312 -7.09375 4.164062 -7.125 4 -7.125 L 1.890625 -7.125 L 1.890625 -4.671875 Z M 4 -4.671875 "/></g></g><g style="fill:rgb(32.939148%,32.939148%,32.939148%);fill-opacity:1;"><g transform="translate(212.042364, 168.318577)"><path style="stroke:none;" d=""/></g></g><g style="fill:rgb(32.939148%,32.939148%,32.939148%);fill-opacity:1;"><g transform="translate(216.797104, 168.318577)"><path style="stroke:none;" d="M 3.953125 -8.203125 C 4.285156 -8.203125 4.59375 -8.140625 4.875 -8.015625 C 5.15625 -7.898438 5.398438 -7.738281 5.609375 -7.53125 C 5.828125 -7.320312 6 -7.078125 6.125 -6.796875 C 6.25 -6.515625 6.3125 -6.207031 6.3125 -5.875 C 6.3125 -5.550781 6.25 -5.242188 6.125 -4.953125 C 6 -4.671875 5.828125 -4.425781 5.609375 -4.21875 C 5.398438 -4.007812 5.15625 -3.84375 4.875 -3.71875 C 4.59375 -3.601562 4.285156 -3.546875 3.953125 -3.546875 L 1.828125 -3.546875 L 1.828125 0 L 0.625 0 L 0.625 -8.203125 Z M 3.953125 -4.671875 C 4.117188 -4.671875 4.269531 -4.703125 4.40625 -4.765625 C 4.550781 -4.835938 4.675781 -4.925781 4.78125 -5.03125 C 4.894531 -5.144531 4.984375 -5.273438 5.046875 -5.421875 C 5.109375 -5.578125 5.140625 -5.738281 5.140625 -5.90625 C 5.140625 -6.070312 5.109375 -6.226562 5.046875 -6.375 C 4.984375 -6.519531 4.894531 -6.648438 4.78125 -6.765625 C 4.675781 -6.878906 4.550781 -6.96875 4.40625 -7.03125 C 4.269531 -7.09375 4.117188 -7.125 3.953125 -7.125 L 1.828125 -7.125 L 1.828125 -4.671875 Z M 3.953125 -4.671875 "/></g></g><g style="fill:rgb(32.939148%,32.939148%,32.939148%);fill-opacity:1;"><g transform="translate(225.264661, 168.318577)"><path style="stroke:none;" d="M 1.453125 0 L 0.125 0 L 3.546875 -8.203125 L 4.875 -8.203125 L 8.296875 0 L 6.984375 0 L 5.90625 -2.578125 L 2.515625 -2.578125 Z M 2.96875 -3.6875 L 5.4375 -3.6875 L 4.21875 -6.640625 Z M 2.96875 -3.6875 "/></g></g><g style="fill:rgb(32.939148%,32.939148%,32.939148%);fill-opacity:1;"><g transform="translate(235.46718, 168.318577)"><path style="stroke:none;" d="M 7.421875 0 L 5.90625 0 L 3.328125 -3.546875 L 1.890625 -3.546875 L 1.890625 0 L 0.671875 0 L 0.671875 -8.203125 L 4 -8.203125 C 4.332031 -8.203125 4.640625 -8.140625 4.921875 -8.015625 C 5.210938 -7.898438 5.460938 -7.738281 5.671875 -7.53125 C 5.890625 -7.320312 6.0625 -7.078125 6.1875 -6.796875 C 6.3125 -6.515625 6.375 -6.207031 6.375 -5.875 C 6.375 -5.601562 6.328125 -5.347656 6.234375 -5.109375 C 6.148438 -4.878906 6.03125 -4.664062 5.875 -4.46875 C 5.726562 -4.28125 5.550781 -4.113281 5.34375 -3.96875 C 5.132812 -3.820312 4.910156 -3.710938 4.671875 -3.640625 Z M 4 -4.671875 C 4.164062 -4.671875 4.320312 -4.703125 4.46875 -4.765625 C 4.613281 -4.835938 4.738281 -4.925781 4.84375 -5.03125 C 4.945312 -5.144531 5.03125 -5.273438 5.09375 -5.421875 C 5.15625 -5.578125 5.1875 -5.738281 5.1875 -5.90625 C 5.1875 -6.070312 5.15625 -6.226562 5.09375 -6.375 C 5.03125 -6.519531 4.945312 -6.648438 4.84375 -6.765625 C 4.738281 -6.878906 4.613281 -6.96875 4.46875 -7.03125 C 4.320312 -7.09375 4.164062 -7.125 4 -7.125 L 1.890625 -7.125 L 1.890625 -4.671875 Z M 4 -4.671875 "/></g></g><g style="fill:rgb(32.939148%,32.939148%,32.939148%);fill-opacity:1;"><g transform="translate(244.790652, 168.318577)"><path style="stroke:none;" d="M 3.953125 -4.40625 L 7.890625 0.015625 L 6.265625 0.015625 L 3.15625 -3.59375 L 1.859375 -2.296875 L 1.859375 0 L 0.640625 0 L 0.640625 -8.203125 L 1.859375 -8.203125 L 1.859375 -3.796875 L 2.75 -4.765625 L 6.171875 -8.203125 L 7.75 -8.203125 Z M 3.953125 -4.40625 "/></g></g><g style="fill:rgb(32.939148%,32.939148%,32.939148%);fill-opacity:1;"><g transform="translate(254.623043, 168.318577)"><path style="stroke:none;" d="M 2.875 -7.21875 L 2.875 -1 L 3.46875 -1 L 3.46875 0 L 1.046875 0 L 1.046875 -1 L 1.671875 -1 L 1.671875 -7.21875 L 1.046875 -7.21875 L 1.046875 -8.203125 L 3.46875 -8.203125 L 3.46875 -7.21875 Z M 2.875 -7.21875 "/></g></g><g style="fill:rgb(32.939148%,32.939148%,32.939148%);fill-opacity:1;"><g transform="translate(260.90455, 168.318577)"><path style="stroke:none;" d="M 7.71875 -8.203125 L 7.71875 0 L 6.5 0 L 1.90625 -6.296875 L 1.90625 0 L 0.640625 0 L 0.640625 -8.203125 L 1.921875 -8.203125 L 6.5 -1.875 L 6.5 -8.203125 Z M 7.71875 -8.203125 "/></g></g><g style="fill:rgb(32.939148%,32.939148%,32.939148%);fill-opacity:1;"><g transform="translate(271.026099, 168.318577)"><path style="stroke:none;" d="M 5.234375 -4.390625 L 7.46875 -4.390625 L 7.46875 -1.375 C 7.09375 -0.9375 6.644531 -0.578125 6.125 -0.296875 C 5.601562 -0.0234375 5.03125 0.109375 4.40625 0.109375 C 3.851562 0.109375 3.328125 0 2.828125 -0.21875 C 2.335938 -0.445312 1.910156 -0.75 1.546875 -1.125 C 1.179688 -1.507812 0.894531 -1.957031 0.6875 -2.46875 C 0.476562 -2.976562 0.375 -3.519531 0.375 -4.09375 C 0.375 -4.664062 0.476562 -5.207031 0.6875 -5.71875 C 0.894531 -6.238281 1.179688 -6.6875 1.546875 -7.0625 C 1.910156 -7.445312 2.335938 -7.75 2.828125 -7.96875 C 3.328125 -8.195312 3.851562 -8.3125 4.40625 -8.3125 C 4.914062 -8.3125 5.398438 -8.210938 5.859375 -8.015625 C 6.316406 -7.816406 6.722656 -7.550781 7.078125 -7.21875 L 6.375 -6.3125 C 6.113281 -6.582031 5.816406 -6.800781 5.484375 -6.96875 C 5.148438 -7.132812 4.789062 -7.21875 4.40625 -7.21875 C 4.019531 -7.21875 3.65625 -7.132812 3.3125 -6.96875 C 2.96875 -6.800781 2.664062 -6.570312 2.40625 -6.28125 C 2.15625 -6 1.957031 -5.671875 1.8125 -5.296875 C 1.664062 -4.921875 1.59375 -4.519531 1.59375 -4.09375 C 1.59375 -3.675781 1.664062 -3.28125 1.8125 -2.90625 C 1.957031 -2.53125 2.15625 -2.203125 2.40625 -1.921875 C 2.664062 -1.640625 2.96875 -1.414062 3.3125 -1.25 C 3.65625 -1.082031 4.019531 -1 4.40625 -1 C 4.769531 -1 5.109375 -1.070312 5.421875 -1.21875 C 5.742188 -1.363281 6.03125 -1.554688 6.28125 -1.796875 L 6.28125 -3.265625 L 5.234375 -3.265625 Z M 5.234375 -4.390625 "/></g></g></g></svg>